<svg width="284" height="48" viewBox="0 0 284 48" fill="none" xmlns="http://www.w3.org/2000/svg">
<path fill-rule="evenodd" clip-rule="evenodd" d="M10.9722 9.08208V20.2275L16.3651 27.4973V34.1249H14.5829V26.7864H10.9259V36.2348C10.9259 36.5558 11.0648 36.9686 11.3194 37.2209C11.5508 37.4731 12.1526 37.6107 12.5692 37.6107H18.0548C18.5871 37.6107 19.2815 37.6107 19.6287 37.1979C19.9759 36.8081 19.999 36.5558 20.0222 36.0513V26.4653L14.6523 18.9891V10.3663L15.4162 9.5178L16.3651 10.3205V19.2643L20.0222 19.3102V8.71515C18.3788 7.0181 17.4993 6.42185 15.393 5C13.8191 6.19252 12.2452 7.52263 10.9953 9.08208M4.19046 38.3446C5.23202 39.216 6.15785 39.7206 7.5466 39.8811H11.1573V41.4406H14.4209V43C15.4625 43 16.4809 43 17.5224 43V41.4406H20.7628V39.8811H24.3967C25.7623 39.7206 26.7113 39.216 27.7529 38.3446H4.2136H4.19046ZM24.9985 24.5389C26.8039 24.6536 27.1974 23.9656 27.1048 23.2088C27.0122 22.475 26.4567 21.2824 24.9985 19.7459V24.5389ZM25.1142 28.2311V34.0332C27.3131 34.1249 28.0306 31.4188 28.2852 29.7447C28.0769 28.2082 27.0585 28.1853 25.1142 28.2311ZM20.9943 9.449V37.5878H28.2852C30.9238 34.4001 33.3078 30.7079 31.1784 26.3048C33.3078 23.0483 26.665 13.8751 20.9943 9.449ZM9.86118 9.83887V37.5878H6.27358V28.7586H3.82013C3.959 31.35 4.90798 32.8636 5.41718 33.414V37.5878H3.58867C3.58867 37.5878 0.973194 35.0193 0.209383 30.3639C-0.508136 26.0296 0.487129 20.3193 5.25516 15.0217V21.4659C4.5145 22.1768 4.2136 23.9656 4.14417 24.9288L6.41245 24.9747V13.6457C7.68547 12.0634 8.42614 11.169 9.86118 9.81593" fill="#9DC53B"/>
<path d="M277.234 7.84442H277.876C278.186 7.84442 278.372 7.78951 278.497 7.7163C278.6 7.62478 278.662 7.51496 278.662 7.35023C278.662 7.1855 278.641 7.16719 278.579 7.09398C278.517 7.02077 278.455 6.96586 278.352 6.92925C278.248 6.89264 278.083 6.87434 277.834 6.87434H277.234V7.84442ZM276.717 9.65646V6.41676H277.814C278.186 6.41676 278.476 6.45336 278.641 6.50827C278.807 6.56318 278.952 6.673 279.055 6.81943C279.159 6.96586 279.2 7.13059 279.2 7.29532C279.2 7.46005 279.117 7.7346 278.952 7.91763C278.786 8.10067 278.559 8.19218 278.29 8.21049C278.414 8.2654 278.497 8.32031 278.559 8.37522C278.683 8.50334 278.848 8.72298 279.034 9.01584L279.428 9.65646H278.786L278.497 9.14396C278.269 8.74128 278.083 8.48504 277.959 8.39352C277.855 8.32031 277.731 8.2837 277.545 8.2837H277.234V9.65646H276.717ZM278.021 5.48328C277.607 5.48328 277.193 5.5931 276.8 5.81274C276.407 6.03238 276.097 6.34354 275.869 6.74622C275.641 7.14889 275.538 7.56987 275.538 8.00915C275.538 8.44843 275.641 8.85111 275.869 9.25378C276.097 9.65646 276.407 9.96761 276.8 10.1873C277.193 10.4069 277.607 10.5167 278.041 10.5167C278.476 10.5167 278.89 10.4069 279.283 10.1873C279.676 9.96761 279.986 9.65646 280.214 9.25378C280.441 8.85111 280.545 8.44843 280.545 8.00915C280.545 7.56987 280.441 7.14889 280.214 6.74622C279.986 6.34354 279.676 6.03238 279.283 5.81274C278.89 5.5931 278.476 5.48328 278.062 5.48328M278.021 4.98909C278.517 4.98909 279.014 5.11721 279.49 5.37346C279.966 5.62971 280.338 5.99578 280.607 6.48997C280.876 6.96586 281 7.47835 281 7.99085C281 8.50334 280.876 8.99753 280.607 9.49173C280.338 9.96761 279.966 10.3337 279.49 10.6082C279.014 10.8645 278.517 11.0109 278 11.0109C277.483 11.0109 276.986 10.8828 276.51 10.6082C276.034 10.352 275.662 9.96761 275.393 9.49173C275.124 9.01584 275 8.52165 275 7.99085C275 7.46005 275.124 6.96586 275.393 6.48997C275.662 6.01408 276.034 5.62971 276.51 5.37346C276.986 5.11721 277.483 4.98909 277.979 4.98909" fill="#E32227"/>
<path d="M262.79 10.4471L270.195 21.6906V13.9118C270.195 12.8165 270.06 12.1012 269.813 11.6988C269.454 11.1847 268.871 10.9388 268.041 10.9612V10.4694H273V10.9612C272.372 11.0506 271.945 11.1847 271.721 11.3412C271.497 11.4976 271.339 11.7435 271.205 12.1012C271.093 12.4588 271.025 13.0624 271.025 13.9118V29H270.644L260.478 13.9118V25.4235C260.478 26.4518 260.68 27.1671 261.062 27.5247C261.466 27.8824 261.914 28.0835 262.408 28.0835H262.767V28.5753H257.449V28.0835C258.279 28.0835 258.84 27.86 259.177 27.4576C259.491 27.0553 259.67 26.3847 259.67 25.4235V12.6376L259.356 12.1459C259.042 11.6765 258.75 11.3635 258.503 11.2071C258.257 11.0506 257.92 10.9835 257.449 10.9612V10.4694H262.767L262.79 10.4471ZM249.819 22.4282L247.575 16.1918L245.264 22.4282H249.796H249.819ZM250.178 23.4118H244.882L244.254 25.1777C244.052 25.7588 243.94 26.2506 243.94 26.6306C243.94 27.0106 244.119 27.5247 244.456 27.7482C244.658 27.9047 245.151 27.9941 245.937 28.0612V28.5529H240.932V28.0612C241.471 27.9718 241.92 27.6812 242.256 27.2565C242.593 26.8094 243.042 25.9153 243.536 24.5294L248.899 10.0671H249.101L254.509 24.9094C255.025 26.3176 255.452 27.2118 255.788 27.5694C256.035 27.8376 256.394 28.0165 256.843 28.0612V28.5529H249.572V28.0612H249.864C250.447 28.0612 250.851 27.9718 251.098 27.7706C251.255 27.6365 251.345 27.4129 251.345 27.1447C251.345 26.8765 251.322 26.8318 251.278 26.6529C251.278 26.5635 251.143 26.2282 250.941 25.6471L250.133 23.3894L250.178 23.4118ZM243.446 10.4471V10.9388C242.907 11.0506 242.414 11.3859 241.987 11.9894C241.673 12.4365 241.224 13.4871 240.596 15.1412L235.412 28.9777H235.053L229.892 14.5824C229.263 12.8388 228.859 11.8329 228.658 11.52C228.456 11.2071 228.052 11.0282 227.468 10.9388V10.4471H234.672V10.9388H234.425C233.774 10.9388 233.325 11.0282 233.101 11.2294C232.921 11.3635 232.854 11.5647 232.854 11.8106C232.854 12.0565 232.876 12.1682 232.944 12.3694C233.011 12.5929 233.213 13.1741 233.55 14.1353L236.759 23.1435L239.721 15.1188C240.08 14.1576 240.304 13.4871 240.371 13.1741C240.461 12.8388 240.484 12.5706 240.484 12.3247C240.484 12.0788 240.416 11.8329 240.304 11.6094C240.192 11.4082 240.012 11.2518 239.788 11.14C239.474 10.9835 239.047 10.9165 238.531 10.9165V10.4247H243.468L243.446 10.4471ZM222.89 22.4282L220.646 16.1918L218.335 22.4282H222.868H222.89ZM223.272 23.4118H217.976L217.347 25.1777C217.146 25.7588 217.033 26.2506 217.033 26.6306C217.033 27.0106 217.213 27.5247 217.549 27.7482C217.751 27.9047 218.245 27.9941 219.031 28.0612V28.5529H214.026V28.0612C214.565 27.9718 215.014 27.6812 215.35 27.2565C215.687 26.8094 216.136 25.9153 216.629 24.5294L221.993 10.0671H222.195L227.603 24.9094C228.119 26.3176 228.545 27.2118 228.882 27.5694C229.129 27.8376 229.488 28.0165 229.937 28.0612V28.5529H222.666V28.0612H222.958C223.541 28.0612 223.945 27.9718 224.192 27.7706C224.349 27.6365 224.439 27.4129 224.439 27.1447C224.439 26.8765 224.416 26.8318 224.371 26.6529C224.371 26.5635 224.237 26.2282 224.035 25.6471L223.227 23.3894L223.272 23.4118ZM202.38 19.8576V25.4682C202.38 26.3847 202.425 26.9659 202.514 27.2118C202.604 27.4353 202.761 27.6365 203.008 27.8153C203.255 27.9941 203.591 28.0835 204.018 28.0835H204.512V28.5753H196.657V28.0835H197.151C197.577 28.0835 197.936 27.9941 198.206 27.7929C198.408 27.6812 198.542 27.4576 198.655 27.1447C198.744 26.9435 198.789 26.3847 198.789 25.4682V13.5541C198.789 12.6376 198.744 12.0565 198.655 11.8106C198.565 11.5871 198.408 11.3859 198.161 11.2071C197.914 11.0282 197.577 10.9388 197.151 10.9388H196.657V10.4471H204.512V10.9388H204.018C203.591 10.9388 203.232 11.0282 202.963 11.2071C202.761 11.3412 202.627 11.5424 202.514 11.8553C202.425 12.0788 202.402 12.6376 202.402 13.5318V18.6506H207.698V13.5318C207.698 12.6153 207.653 12.0341 207.586 11.7882C207.496 11.5647 207.339 11.3635 207.092 11.1847C206.845 11.0059 206.509 10.9165 206.082 10.9165H205.589V10.4247H213.443V10.9165H212.949C212.5 10.9165 212.164 11.0059 211.894 11.1847C211.715 11.3188 211.558 11.52 211.446 11.8329C211.356 12.0565 211.333 12.6153 211.333 13.5094V25.4235C211.333 26.34 211.378 26.9212 211.446 27.1671C211.535 27.3906 211.692 27.5918 211.939 27.7706C212.186 27.9494 212.523 28.0388 212.949 28.0388H213.443V28.5306H205.589V28.0388H206.082C206.531 28.0388 206.868 27.9494 207.137 27.7482C207.317 27.6365 207.474 27.4129 207.586 27.1C207.676 26.8988 207.698 26.34 207.698 25.4235V19.8129H202.402L202.38 19.8576ZM187.12 19.6565V26.1388C187.12 26.6082 187.21 26.9882 187.412 27.2341C187.614 27.48 187.906 27.5918 188.309 27.5918C188.893 27.5918 189.454 27.4353 189.948 27.1224C190.441 26.8094 190.823 26.34 191.092 25.7365C191.361 25.1329 191.496 24.4624 191.496 23.7247C191.496 22.9871 191.339 22.1153 191.002 21.4447C190.688 20.7741 190.239 20.3047 189.656 20.0365C189.095 19.7682 188.242 19.6341 187.12 19.6565ZM187.12 18.6059C188.175 18.6059 188.938 18.4718 189.431 18.1812C189.925 17.8906 190.307 17.4882 190.576 16.9741C190.845 16.46 190.98 15.7894 190.98 14.9847C190.98 14.18 190.845 13.5318 190.576 13.0176C190.307 12.5035 189.948 12.1235 189.454 11.8553C188.96 11.5871 188.175 11.4529 187.098 11.4753V18.6059H187.12ZM191.137 18.9635C192.551 19.3659 193.561 19.8576 194.144 20.4165C194.974 21.2212 195.378 22.2718 195.378 23.5682C195.378 24.8647 194.929 26.0494 194.009 26.9435C192.887 28.0165 191.272 28.5529 189.14 28.5529H181.51V28.0612C182.206 28.0612 182.677 27.9941 182.924 27.8153C183.171 27.6588 183.35 27.4576 183.44 27.2118C183.552 26.9659 183.597 26.34 183.597 25.3788V13.6212C183.597 12.6376 183.552 12.0341 183.44 11.7659C183.35 11.52 183.171 11.3188 182.924 11.1624C182.677 11.0059 182.206 10.9388 181.51 10.9388V10.4471H188.713C190.441 10.4471 191.653 10.6259 192.371 11.0059C193.089 11.3859 193.65 11.9224 194.054 12.66C194.481 13.3976 194.683 14.18 194.683 15.0071C194.683 15.8341 194.413 16.6612 193.897 17.3318C193.381 18.0024 192.461 18.5612 191.137 18.9635ZM169.302 22.4282L167.058 16.1918L164.747 22.4282H169.28H169.302ZM169.684 23.4118H164.388L163.76 25.1777C163.558 25.7588 163.445 26.2506 163.445 26.6306C163.445 27.0106 163.625 27.5247 163.961 27.7482C164.163 27.9047 164.657 27.9941 165.443 28.0612V28.5529H160.438V28.0612C160.977 27.9718 161.426 27.6812 161.762 27.2565C162.099 26.8094 162.548 25.9153 163.041 24.5294L168.405 10.0671H168.607L174.015 24.9094C174.531 26.3176 174.957 27.2118 175.294 27.5694C175.541 27.8376 175.9 28.0165 176.349 28.0612V28.5529H169.078V28.0612H169.37C169.953 28.0612 170.357 27.9718 170.604 27.7706C170.761 27.6365 170.851 27.4129 170.851 27.1447C170.851 26.8765 170.828 26.8318 170.783 26.6529C170.783 26.5635 170.649 26.2282 170.447 25.6471L169.639 23.3894L169.684 23.4118ZM152.921 22.4282L150.677 16.1918L148.365 22.4282H152.898H152.921ZM153.302 23.4118H148.006L147.378 25.1777C147.176 25.7588 147.064 26.2506 147.064 26.6306C147.064 27.0106 147.243 27.5247 147.58 27.7482C147.782 27.9047 148.276 27.9941 149.061 28.0612V28.5529H144.057V28.0612C144.595 27.9718 145.044 27.6812 145.381 27.2565C145.717 26.8094 146.166 25.9153 146.66 24.5294L152.023 10.0671H152.225L157.633 24.9094C158.149 26.3176 158.576 27.2118 158.912 27.5694C159.159 27.8376 159.518 28.0165 159.99 28.0612V28.5529H152.719V28.0612H153.011C153.594 28.0612 153.998 27.9718 154.245 27.7706C154.402 27.6365 154.492 27.4129 154.492 27.1447C154.492 26.8765 154.469 26.8318 154.424 26.6529C154.424 26.5635 154.29 26.2282 154.088 25.6471L153.28 23.3894L153.302 23.4118ZM133.128 10.4471L140.534 21.6906V13.9118C140.534 12.8165 140.399 12.1012 140.152 11.6988C139.793 11.1847 139.21 10.9388 138.357 10.9612V10.4694H143.316V10.9612C142.688 11.0506 142.261 11.1847 142.037 11.3412C141.813 11.4976 141.656 11.7435 141.521 12.1012C141.409 12.4588 141.341 13.0624 141.341 13.9118V29H140.96L130.794 13.9118V25.4235C130.794 26.4518 130.996 27.1671 131.378 27.5247C131.782 27.8824 132.231 28.0835 132.724 28.0835H133.083V28.5753H127.765V28.0835C128.595 28.0835 129.156 27.86 129.493 27.4576C129.807 27.0553 129.987 26.3847 129.987 25.4235V12.6376L129.672 12.1459C129.358 11.6765 129.066 11.3635 128.82 11.2071C128.573 11.0506 128.236 10.9835 127.765 10.9612V10.4694H133.083L133.128 10.4471ZM120.158 22.4282L117.914 16.1918L115.602 22.4282H120.135H120.158ZM120.539 23.4118H115.243L114.615 25.1777C114.413 25.7588 114.301 26.2506 114.301 26.6306C114.301 27.0106 114.48 27.5247 114.817 27.7482C115.019 27.9047 115.512 27.9941 116.298 28.0612V28.5529H111.294V28.0612C111.832 27.9718 112.281 27.6812 112.618 27.2565C112.977 26.8094 113.403 25.9153 113.897 24.5294L119.26 10.0671H119.462L124.87 24.9094C125.386 26.3176 125.813 27.2118 126.149 27.5694C126.396 27.8376 126.755 28.0165 127.226 28.0612V28.5529H119.956V28.0612H120.247C120.831 28.0612 121.235 27.9718 121.482 27.7706C121.639 27.6365 121.728 27.4129 121.728 27.1447C121.728 26.8765 121.728 26.8318 121.661 26.6529C121.661 26.5635 121.526 26.2282 121.324 25.6471L120.517 23.3894L120.539 23.4118ZM113.784 10.4471V10.9388C113.246 11.0506 112.752 11.3859 112.326 11.9894C112.012 12.4365 111.563 13.4871 110.935 15.1412L105.751 28.9777H105.392L100.23 14.5824C99.602 12.8388 99.1981 11.8329 98.9962 11.52C98.7942 11.2071 98.3903 11.0282 97.8068 10.9388V10.4471H105.01V10.9388H104.763C104.113 10.9388 103.664 11.0282 103.439 11.2294C103.26 11.3635 103.193 11.5647 103.193 11.8106C103.193 12.0565 103.215 12.1682 103.282 12.3694C103.35 12.5929 103.552 13.1741 103.888 14.1353L107.097 23.1435L110.059 15.1188C110.418 14.1576 110.643 13.4871 110.71 13.1741C110.8 12.8388 110.822 12.5706 110.822 12.3247C110.822 12.0788 110.755 11.8329 110.643 11.6094C110.531 11.4082 110.351 11.2518 110.127 11.14C109.812 10.9835 109.386 10.9165 108.87 10.9165V10.4247H113.807L113.784 10.4471ZM93.2514 22.4282L91.0073 16.1918L88.6959 22.4282H93.2289H93.2514ZM93.6104 23.4118H88.3145L87.6861 25.1777C87.4842 25.7588 87.372 26.2506 87.372 26.6306C87.372 27.0106 87.5515 27.5247 87.8881 27.7482C88.0901 27.9047 88.5837 27.9941 89.3692 28.0612V28.5529H84.3649V28.0612C84.9035 27.9718 85.3523 27.6812 85.6889 27.2565C86.048 26.8094 86.4743 25.9153 86.968 24.5294L92.3313 10.0671H92.5333L97.9414 24.9094C98.4576 26.3176 98.8839 27.2118 99.2206 27.5694C99.4674 27.8376 99.8265 28.0165 100.275 28.0612V28.5529H93.0045V28.0612H93.2963C93.8797 28.0612 94.2836 27.9718 94.5305 27.7706C94.6876 27.6365 94.7773 27.4129 94.7773 27.1447C94.7773 26.8765 94.7549 26.8318 94.71 26.6529C94.71 26.5635 94.5754 26.2282 94.3734 25.6471L93.5655 23.3894L93.6104 23.4118ZM73.8179 11.4306V19.3659H74.4462C75.4785 19.3659 76.2414 19.2541 76.7576 19.0306C77.2737 18.8071 77.6776 18.3824 77.9694 17.8012C78.2611 17.1977 78.4182 16.4376 78.4182 15.4765C78.4182 14.0906 78.1489 13.0847 77.6103 12.4141C77.0718 11.7435 76.219 11.4306 75.0297 11.4306H73.8403H73.8179ZM73.8179 20.3047V25.3788C73.8179 26.3624 73.8628 26.9659 73.975 27.2341C74.0872 27.48 74.2442 27.7035 74.4911 27.8377C74.7379 27.9941 75.2092 28.0612 75.9048 28.0612V28.5529H68.2077V28.0612C68.9034 28.0612 69.3747 27.9941 69.6215 27.8153C69.8683 27.6588 70.0479 27.4576 70.1376 27.2118C70.2274 26.9659 70.2947 26.34 70.2947 25.3788V13.6212C70.2947 12.6376 70.2498 12.0341 70.1376 11.7659C70.0254 11.52 69.8683 11.3188 69.5991 11.1624C69.3522 11.0059 68.881 10.9388 68.1853 10.9388V10.4471H75.1643C76.982 10.4471 78.306 10.6035 79.1587 10.8941C79.989 11.1847 80.6847 11.7659 81.2233 12.5706C81.7618 13.3753 82.0311 14.3365 82.0311 15.4318C82.0311 16.5271 81.6272 17.8682 80.8418 18.74C80.3256 19.2988 79.63 19.7012 78.7099 19.9694L82.3228 26.0941C82.7941 26.8765 83.1307 27.3682 83.3327 27.5694C83.6468 27.8376 83.9834 27.9941 84.3874 28.0165V28.5082H79.6524L74.8053 20.26H73.8179V20.3047ZM60.4658 22.4282L58.2217 16.1918L55.9103 22.4282H60.4433H60.4658ZM60.8473 23.4118H55.5513L54.923 25.1777C54.721 25.7588 54.6088 26.2506 54.6088 26.6306C54.6088 27.0106 54.7883 27.5247 55.1249 27.7482C55.3269 27.9047 55.8206 27.9941 56.606 28.0612V28.5529H51.6018V28.0612C52.1403 27.9718 52.5891 27.6812 52.9257 27.2565C53.2624 26.8094 53.7112 25.9153 54.2049 24.5294L59.5681 10.0671H59.7701L65.1783 24.9094C65.6944 26.3176 66.1208 27.2118 66.4574 27.5694C66.7042 27.8376 67.0633 28.0165 67.5345 28.0612V28.5529H60.2638V28.0612H60.5555C61.139 28.0612 61.5429 27.9718 61.7898 27.7706C61.9468 27.6365 62.0366 27.4129 62.0366 27.1447C62.0366 26.8765 62.0142 26.8318 61.9693 26.6529C61.9693 26.5635 61.8346 26.2282 61.6327 25.6471L60.8248 23.3894L60.8473 23.4118ZM49.4475 10.0447L49.5821 16.08H49.1333C48.9313 14.56 48.3928 13.3529 47.5625 12.4141C46.7322 11.4976 45.8121 11.0282 44.8472 11.0282C43.8822 11.0282 43.5007 11.2741 43.0519 11.7659C42.6031 12.2576 42.4011 12.8165 42.4011 13.4424C42.4011 14.0682 42.4909 14.2024 42.6255 14.5153C42.8275 14.94 43.1866 15.3424 43.6578 15.7447C43.9944 16.0353 44.8023 16.5494 46.0589 17.3094C47.8093 18.36 48.9987 19.3435 49.6045 20.26C50.2104 21.1765 50.5246 22.2494 50.5246 23.4341C50.5246 24.6188 50.0309 26.2506 49.066 27.3459C48.0786 28.4412 46.8444 28.9777 45.3408 28.9777C43.8373 28.9777 44.4208 28.9106 43.9944 28.7988C43.568 28.6871 43.0519 28.4635 42.4011 28.1506C42.0421 27.9718 41.7504 27.8824 41.526 27.8824C41.3016 27.8824 41.122 27.9718 40.9201 28.1506C40.6957 28.3294 40.5386 28.5977 40.4039 28.9553H40V22.1153H40.4039C40.7181 24.0376 41.3464 25.5129 42.2889 26.5188C43.209 27.5247 44.2188 28.0388 45.2735 28.0388C46.3282 28.0388 46.7546 27.7706 47.2483 27.2341C47.742 26.6976 47.9888 26.0494 47.9888 25.3341C47.9888 24.6188 47.8991 24.4847 47.6971 24.0824C47.5176 23.68 47.2258 23.3 46.8444 22.9424C46.4629 22.5847 45.7897 22.1153 44.8023 21.5341C43.4334 20.7294 42.446 20.0365 41.8626 19.4553C41.2567 18.8965 40.8079 18.2482 40.4937 17.5553C40.1795 16.8624 40 16.08 40 15.2306C40 13.8 40.4488 12.5482 41.324 11.5424C42.1992 10.5365 43.3212 10.0224 44.6452 10.0224C45.9692 10.0224 45.6101 10.0894 46.0589 10.2235C46.3956 10.3353 46.8219 10.5365 47.3156 10.8271C47.8093 11.1176 48.1684 11.2518 48.3703 11.2518C48.5723 11.2518 48.7069 11.1847 48.8191 11.0282C48.9313 10.8941 49.0435 10.5365 49.1333 10H49.4699L49.4475 10.0447Z" fill="#E32227"/>
<path d="M216.912 36.6037H219.242C218.873 36.7188 218.619 36.8798 218.481 37.1099C218.342 37.34 218.273 37.7082 218.273 38.2374V40.0781C218.273 40.5383 218.273 40.8834 218.227 41.1135C218.204 41.3206 218.158 41.5276 218.089 41.6657C217.973 41.9418 217.743 42.1259 217.42 42.2409C217.12 42.3329 216.797 42.402 216.428 42.402C215.459 42.402 214.836 42.1489 214.559 41.6427C214.375 41.3436 214.282 40.8144 214.282 40.0551V37.0869L213.613 36.5807H215.897L215.228 37.0869V40.6303C215.228 40.9524 215.251 41.2055 215.297 41.3666C215.343 41.5276 215.436 41.6657 215.574 41.7807C215.782 41.9418 216.105 42.0338 216.497 42.0338C217.12 42.0338 217.512 41.8498 217.696 41.4816C217.835 41.2285 217.881 40.7453 217.881 40.0781V38.2374C217.881 37.7082 217.812 37.34 217.673 37.1099C217.535 36.8798 217.281 36.7188 216.912 36.6037ZM210.522 37.5011L209.738 39.4108C210.015 39.6869 210.315 40.0551 210.661 40.4922C210.684 40.4692 210.799 40.3312 211.007 40.1011C211.122 39.986 211.26 39.848 211.422 39.6869L210.522 37.5011ZM211.906 36.6037L211.399 37.1099L212.206 39.1117C212.483 38.9506 212.737 38.7666 212.898 38.5595C212.944 38.6975 212.991 38.8356 213.06 38.9967C213.129 39.1577 213.198 39.2958 213.267 39.3878C213.175 39.3878 213.06 39.3878 212.99 39.3878C212.76 39.3878 212.575 39.4338 212.391 39.5259L213.267 41.7577L213.982 42.2639H211.583L212.229 41.7577L211.583 40.1471C211.468 40.2621 211.353 40.3542 211.26 40.4462C210.984 40.7223 210.776 40.9754 210.661 41.1825C210.268 40.5843 209.899 40.1241 209.576 39.848V39.94C209.369 40.4462 209.253 40.7683 209.207 40.9294C209.161 41.0905 209.138 41.2285 209.138 41.3436C209.138 41.5737 209.207 41.7807 209.369 41.9418C209.392 41.9648 209.507 42.0798 209.692 42.2639H207.316C207.616 42.1259 207.846 41.9648 208.031 41.8037C208.192 41.6427 208.377 41.4126 208.561 41.1135C208.7 40.8834 208.815 40.6763 208.884 40.4922C208.954 40.3082 209.069 40.009 209.207 39.6179C209.069 39.5259 208.977 39.4798 208.884 39.4568C208.792 39.4338 208.654 39.4108 208.492 39.3878C208.561 39.2728 208.654 39.1577 208.723 39.0197C208.815 38.8816 208.861 38.7666 208.884 38.6975C208.954 38.7896 209.069 38.8816 209.184 38.9967C209.3 39.0887 209.392 39.1577 209.415 39.1807L210.245 37.1329L209.738 36.6267H211.929L211.906 36.6037ZM208.1 36.6037C207.777 37.0869 207.546 37.5471 207.408 37.9613C207.316 37.7082 207.223 37.5241 207.154 37.409C206.97 37.1099 206.647 36.9719 206.208 36.9719C205.77 36.9719 205.932 36.9719 205.701 36.9949V41.7577L206.37 42.2639H204.086L204.755 41.7577V36.9949C204.501 36.9949 204.34 36.9719 204.248 36.9719C203.786 36.9719 203.486 37.1099 203.302 37.409C203.233 37.5241 203.14 37.7082 203.048 37.9613C202.91 37.5471 202.679 37.0869 202.356 36.6037H208.123H208.1ZM202.056 36.6498C201.964 36.7878 201.825 36.9949 201.664 37.271C201.502 37.5701 201.364 37.8462 201.249 38.1223C201.179 37.8692 201.11 37.6621 201.041 37.5011C200.926 37.294 200.764 37.1329 200.534 36.9949C200.303 36.8568 200.049 36.7878 199.772 36.7878C199.495 36.7878 199.149 36.8798 198.919 37.0869C198.711 37.248 198.619 37.4781 198.619 37.7542C198.619 38.0303 198.803 38.3984 199.219 38.5595C199.357 38.6285 199.495 38.6745 199.611 38.6975C199.726 38.7206 200.072 38.8126 200.626 38.9276C201.203 39.0657 201.641 39.2498 201.895 39.5259C202.194 39.825 202.356 40.1931 202.356 40.6073C202.356 41.0214 202.171 41.4586 201.825 41.8037C201.41 42.1949 200.88 42.379 200.211 42.379C199.542 42.379 199.772 42.379 199.565 42.3099C199.357 42.2639 199.011 42.1719 198.55 42.0568C198.342 41.9878 198.181 41.9648 198.042 41.9648C197.904 41.9648 197.627 42.0568 197.327 42.2409C197.489 42.0108 197.673 41.7117 197.858 41.3666C198.042 41.0214 198.158 40.7223 198.227 40.5152C198.319 40.8604 198.411 41.0905 198.48 41.2285C198.619 41.4586 198.85 41.6427 199.126 41.7807C199.449 41.9418 199.818 42.0108 200.211 42.0108C200.603 42.0108 200.949 41.9188 201.179 41.7577C201.456 41.5506 201.572 41.2975 201.572 40.9984C201.572 40.6993 201.526 40.6303 201.41 40.4692C201.295 40.3082 201.133 40.1701 200.949 40.0551C200.787 39.986 200.626 39.917 200.441 39.848C200.257 39.802 199.957 39.7329 199.519 39.6639C198.919 39.5489 198.504 39.3878 198.25 39.1577C197.95 38.8816 197.811 38.5135 197.811 38.0993C197.811 37.6852 198.019 37.156 198.411 36.8568C198.757 36.6037 199.196 36.4657 199.726 36.4657C200.257 36.4657 200.534 36.5347 201.041 36.6958C201.272 36.7648 201.433 36.7878 201.549 36.7878C201.664 36.7878 201.872 36.7418 202.125 36.6498M197.096 36.6037C196.866 36.8798 196.681 37.0869 196.589 37.248C196.497 37.409 196.381 37.6391 196.266 37.9382C196.243 37.8922 196.22 37.8462 196.197 37.8002C196.081 37.5931 195.989 37.4321 195.92 37.34C195.828 37.248 195.735 37.1559 195.597 37.1099C195.389 37.0179 195.066 36.9719 194.628 36.9719C194.19 36.9719 194.028 36.9719 193.728 36.9949V39.0427H195.02L195.62 38.3524V40.0781L195.02 39.3878H193.728V41.8498C194.028 41.8498 194.236 41.8728 194.351 41.8728C195.02 41.8728 195.505 41.7807 195.805 41.5967C196.012 41.4586 196.243 41.1825 196.474 40.7683C196.543 41.0905 196.658 41.3436 196.773 41.5506C196.889 41.7577 197.096 41.9648 197.373 42.2179H192.114L192.783 41.7117V39.3648C192.39 39.3648 192.067 39.4568 191.791 39.6869C191.929 39.2267 192.252 38.9967 192.783 38.9967V37.0639L192.114 36.5577H197.119L197.096 36.6037ZM188.238 37.1329V39.4568C188.815 39.3878 189.299 39.2728 189.691 39.0887C189.991 38.9506 190.199 38.7666 190.337 38.5365C190.453 38.3524 190.499 38.1683 190.499 37.9613C190.499 37.5931 190.337 37.317 190.037 37.0869C189.784 36.9029 189.484 36.8108 189.138 36.8108C188.792 36.8108 188.492 36.9028 188.238 37.1099M186.623 37.1559C186.854 37.0179 187.108 36.9028 187.362 36.7878C187.984 36.5577 188.63 36.4427 189.253 36.4427C189.876 36.4427 189.899 36.4887 190.199 36.5807C190.499 36.6728 190.753 36.7878 190.96 36.9489C191.329 37.225 191.514 37.5471 191.514 37.9613C191.514 38.3754 191.375 38.6055 191.099 38.8816C190.822 39.1577 190.43 39.3418 189.922 39.4568C190.13 39.986 190.43 40.5382 190.822 41.0675C191.214 41.6197 191.583 42.0108 191.952 42.2639C191.375 42.425 190.868 42.6781 190.43 43.0002C190.314 42.3329 190.199 41.7807 190.061 41.3206C189.922 40.8604 189.691 40.2852 189.415 39.5949C189.276 39.6409 189.069 39.6639 188.838 39.7099C188.584 39.7559 188.4 39.779 188.261 39.779V41.7577L188.93 42.2639H186.646L187.315 41.7577V39.917C186.992 39.94 186.716 39.986 186.531 40.0551C186.623 39.894 186.693 39.7099 186.739 39.5259C186.831 39.5259 186.923 39.5259 186.969 39.5259C187.062 39.5259 187.177 39.5259 187.315 39.5259V37.5241L186.646 37.179L186.623 37.1559ZM182.817 41.1825V38.2374C182.817 37.7082 182.748 37.34 182.609 37.1099C182.471 36.8798 182.217 36.7188 181.848 36.6037H184.178C183.809 36.7188 183.555 36.8798 183.417 37.1099C183.278 37.34 183.209 37.7082 183.209 38.2374V42.2639H182.448L179.818 37.5241V40.6073C179.818 41.1365 179.887 41.5046 180.026 41.7347C180.164 41.9648 180.418 42.1259 180.787 42.2409H178.457C178.826 42.1259 179.08 41.9648 179.218 41.7347C179.357 41.5046 179.426 41.1365 179.426 40.6073V37.0869L178.757 36.5807H181.225L180.556 37.0869L182.817 41.1595V41.1825ZM175.158 37.5011L174.374 39.4108C174.651 39.6869 174.951 40.0551 175.297 40.4922C175.32 40.4692 175.435 40.3312 175.643 40.1011C175.758 39.986 175.897 39.848 176.058 39.6869L175.158 37.5011ZM176.565 36.6037L176.058 37.1099L176.865 39.1117C177.142 38.9506 177.373 38.7666 177.557 38.5595C177.604 38.6975 177.65 38.8356 177.719 38.9967C177.788 39.1577 177.857 39.2958 177.927 39.3878C177.811 39.3878 177.719 39.3878 177.65 39.3878C177.419 39.3878 177.234 39.4338 177.05 39.5259L177.927 41.7577L178.642 42.2639H176.243L176.888 41.7577L176.243 40.1471C176.127 40.2621 176.035 40.3542 175.92 40.4462C175.643 40.7223 175.435 40.9754 175.32 41.1825C174.928 40.5843 174.559 40.1241 174.236 39.848V39.94C174.028 40.4462 173.913 40.7683 173.867 40.9294C173.82 41.0905 173.797 41.2285 173.797 41.3436C173.797 41.5737 173.866 41.7807 174.028 41.9418C174.051 41.9648 174.166 42.0798 174.351 42.2639H171.975C172.275 42.1259 172.505 41.9648 172.69 41.8037C172.851 41.6427 173.036 41.4126 173.221 41.1135C173.359 40.8834 173.474 40.6763 173.544 40.4922C173.613 40.3082 173.728 40.009 173.867 39.6179C173.728 39.5259 173.636 39.4798 173.544 39.4568C173.451 39.4338 173.313 39.4108 173.151 39.3878C173.221 39.2728 173.313 39.1577 173.382 39.0197C173.474 38.8816 173.52 38.7666 173.544 38.6975C173.613 38.7896 173.728 38.8816 173.843 38.9967C173.959 39.0887 174.051 39.1577 174.074 39.1807L174.905 37.1329L174.397 36.6267H176.589L176.565 36.6037ZM169.691 36.6037H171.975L171.306 37.1099V41.7577L171.975 42.2639H169.691L170.36 41.7577V37.1099L169.691 36.6037ZM165.839 37.1329V39.4568C166.415 39.3878 166.9 39.2728 167.292 39.0887C167.592 38.9506 167.799 38.7666 167.938 38.5365C168.053 38.3524 168.099 38.1683 168.099 37.9613C168.099 37.5931 167.938 37.317 167.638 37.0869C167.384 36.9029 167.084 36.8108 166.738 36.8108C166.392 36.8108 166.092 36.9028 165.839 37.1099M164.224 37.1559C164.455 37.0179 164.708 36.9028 164.962 36.7878C165.585 36.5577 166.231 36.4427 166.854 36.4427C167.477 36.4427 167.5 36.4887 167.799 36.5807C168.099 36.6728 168.353 36.7878 168.561 36.9489C168.93 37.225 169.114 37.5471 169.114 37.9613C169.114 38.3754 168.976 38.6055 168.699 38.8816C168.422 39.1577 168.03 39.3418 167.523 39.4568C167.73 39.986 168.03 40.5382 168.422 41.0675C168.814 41.6197 169.184 42.0108 169.553 42.2639C168.976 42.425 168.468 42.6781 168.03 43.0002C167.915 42.3329 167.799 41.7807 167.661 41.3206C167.523 40.8604 167.292 40.2852 167.015 39.5949C166.877 39.6409 166.669 39.6639 166.438 39.7099C166.185 39.7559 166 39.779 165.862 39.779V41.7577L166.531 42.2639H164.247L164.916 41.7577V39.917C164.593 39.94 164.316 39.986 164.132 40.0551C164.224 39.894 164.293 39.7099 164.339 39.5259C164.432 39.5259 164.524 39.5259 164.57 39.5259C164.662 39.5259 164.778 39.5259 164.916 39.5259V37.5241L164.247 37.179L164.224 37.1559ZM160.648 37.5011L159.864 39.4108C160.141 39.6869 160.441 40.0551 160.787 40.4922C160.81 40.4692 160.925 40.3312 161.133 40.1011C161.248 39.986 161.386 39.848 161.548 39.6869L160.648 37.5011ZM162.032 36.6037L161.525 37.1099L162.332 39.1117C162.609 38.9506 162.863 38.7666 163.024 38.5595C163.07 38.6975 163.117 38.8356 163.186 38.9967C163.255 39.1577 163.324 39.2958 163.393 39.3878C163.301 39.3878 163.186 39.3878 163.117 39.3878C162.886 39.3878 162.701 39.4338 162.517 39.5259L163.393 41.7577L164.109 42.2639H161.709L162.355 41.7577L161.709 40.1471C161.594 40.2621 161.479 40.3542 161.386 40.4462C161.11 40.7223 160.902 40.9754 160.787 41.1825C160.395 40.5843 160.025 40.1241 159.702 39.848V39.94C159.495 40.4462 159.38 40.7683 159.333 40.9294C159.287 41.0905 159.264 41.2285 159.264 41.3436C159.264 41.5737 159.333 41.7807 159.495 41.9418C159.518 41.9648 159.633 42.0798 159.818 42.2639H157.442C157.742 42.1259 157.972 41.9648 158.157 41.8037C158.318 41.6427 158.503 41.4126 158.687 41.1135C158.826 40.8834 158.941 40.6763 159.01 40.4922C159.08 40.3082 159.195 40.009 159.333 39.6179C159.195 39.5259 159.103 39.4798 159.01 39.4568C158.918 39.4338 158.78 39.4108 158.618 39.3878C158.687 39.2728 158.78 39.1577 158.849 39.0197C158.941 38.8816 158.987 38.7666 159.01 38.6975C159.08 38.7896 159.195 38.8816 159.31 38.9967C159.426 39.0887 159.518 39.1577 159.541 39.1807L160.371 37.1329L159.864 36.6267H162.055L162.032 36.6037ZM158.226 36.6037C157.903 37.0869 157.672 37.5471 157.534 37.9613C157.442 37.7082 157.35 37.5241 157.28 37.409C157.096 37.1099 156.773 36.9719 156.335 36.9719C155.896 36.9719 156.058 36.9719 155.827 36.9949V41.7577L156.496 42.2639H154.212L154.881 41.7577V36.9949C154.627 36.9949 154.466 36.9719 154.374 36.9719C153.912 36.9719 153.612 37.1099 153.428 37.409C153.359 37.5241 153.266 37.7082 153.174 37.9613C153.036 37.5471 152.805 37.0869 152.482 36.6037H158.249H158.226ZM152.321 36.6037C152.09 36.8798 151.905 37.0869 151.813 37.248C151.721 37.409 151.605 37.6391 151.49 37.9382C151.467 37.8922 151.444 37.8462 151.421 37.8002C151.306 37.5931 151.213 37.4321 151.144 37.34C151.052 37.248 150.96 37.1559 150.821 37.1099C150.614 37.0179 150.291 36.9719 149.852 36.9719C149.414 36.9719 149.253 36.9719 148.953 36.9949V39.0427H150.244L150.844 38.3524V40.0781L150.244 39.3878H148.953V41.8498C149.253 41.8498 149.46 41.8728 149.575 41.8728C150.244 41.8728 150.729 41.7807 151.029 41.5967C151.236 41.4586 151.467 41.1825 151.698 40.7683C151.767 41.0905 151.882 41.3436 151.998 41.5506C152.113 41.7577 152.321 41.9648 152.597 42.2179H147.338L148.007 41.7117V39.3648C147.615 39.3648 147.292 39.4568 147.015 39.6869C147.153 39.2267 147.476 38.9967 148.007 38.9967V37.0639L147.338 36.5577H152.344L152.321 36.6037ZM146.507 36.6498L145.631 38.2834C145.585 37.9152 145.492 37.6391 145.331 37.409C145.216 37.248 145.054 37.1099 144.87 36.9949C144.639 36.8798 144.385 36.8108 144.131 36.8108C143.624 36.8108 143.209 36.9719 142.863 37.317C142.632 37.5471 142.493 37.7772 142.401 38.0533C142.286 38.4444 142.217 38.8586 142.217 39.3188C142.217 41.0214 142.978 41.8728 144.477 41.8728C145.977 41.8728 144.893 41.8728 145.262 41.8498V39.6639H143.947C143.301 39.6639 142.955 39.4568 142.955 39.0657C142.955 38.6745 143.001 38.8356 143.093 38.7436C143.186 38.6515 143.278 38.6055 143.416 38.6055C143.555 38.6055 143.578 38.6285 143.647 38.6975C143.716 38.7666 143.739 38.8126 143.739 38.9046C143.739 38.9967 143.739 39.0197 143.693 39.0657C143.647 39.0887 143.578 39.1347 143.485 39.1347C143.439 39.1347 143.416 39.1577 143.416 39.2037C143.416 39.2728 143.532 39.2958 143.739 39.2958H146.9L146.231 39.802V41.7347L146.9 42.2409H144.662C144.131 42.2409 143.762 42.2409 143.532 42.1949C143.301 42.1719 143.07 42.1259 142.886 42.0338C142.309 41.8037 141.871 41.4126 141.571 40.8604C141.317 40.4002 141.202 39.894 141.202 39.3418C141.202 38.7896 141.317 38.3064 141.548 37.8692C141.801 37.363 142.194 36.9719 142.724 36.7188C143.139 36.5117 143.555 36.4197 143.993 36.4197C144.431 36.4197 144.685 36.4887 145.1 36.6037C145.4 36.6958 145.608 36.7418 145.677 36.7648C145.746 36.7648 145.838 36.7648 145.931 36.7648C146.138 36.7648 146.346 36.7188 146.53 36.6267M140.602 36.6037C140.371 36.8798 140.187 37.0869 140.094 37.248C140.002 37.409 139.887 37.6391 139.771 37.9382C139.748 37.8922 139.725 37.8462 139.702 37.8002C139.587 37.5931 139.495 37.4321 139.425 37.34C139.333 37.248 139.241 37.1559 139.102 37.1099C138.895 37.0179 138.572 36.9719 138.134 36.9719C137.695 36.9719 137.534 36.9719 137.234 36.9949V39.0427H138.526L139.125 38.3524V40.0781L138.526 39.3878H137.234V41.8498C137.534 41.8498 137.741 41.8728 137.857 41.8728C138.526 41.8728 139.01 41.7807 139.31 41.5967C139.518 41.4586 139.748 41.1825 139.979 40.7683C140.048 41.0905 140.164 41.3436 140.279 41.5506C140.394 41.7577 140.602 41.9648 140.879 42.2179H135.619L136.288 41.7117V39.3648C135.896 39.3648 135.573 39.4568 135.296 39.6869C135.435 39.2267 135.757 38.9967 136.288 38.9967V37.0639L135.619 36.5577H140.625L140.602 36.6037ZM136.288 35.2002C135.873 35.5683 135.55 35.9595 135.319 36.3736C135.065 36.7878 134.766 37.4781 134.373 38.4214L133.012 41.7577L133.681 42.2639H131.328L131.997 41.7577L130.221 37.1099L129.552 36.6037H131.836L131.167 37.1099L132.782 41.3666L134.027 38.3064C134.327 37.5701 134.489 37.0409 134.489 36.7418C134.489 36.4427 134.373 36.1896 134.12 35.9825C135.042 35.8214 135.757 35.5683 136.288 35.2232M126.115 41.1825V38.2374C126.115 37.7082 126.046 37.34 125.907 37.1099C125.769 36.8798 125.515 36.7188 125.146 36.6037H127.476C127.107 36.7188 126.853 36.8798 126.715 37.1099C126.576 37.34 126.507 37.7082 126.507 38.2374V42.2639H125.746L123.116 37.5241V40.6073C123.116 41.1365 123.185 41.5046 123.324 41.7347C123.462 41.9648 123.716 42.1259 124.085 42.2409H121.755C122.124 42.1259 122.378 41.9648 122.516 41.7347C122.655 41.5046 122.724 41.1365 122.724 40.6073V37.0869L122.055 36.5807H124.523L123.854 37.0869L126.115 41.1595V41.1825ZM118.479 37.5011L117.695 39.4108C117.972 39.6869 118.272 40.0551 118.618 40.4922C118.641 40.4692 118.756 40.3312 118.964 40.1011C119.079 39.986 119.217 39.848 119.379 39.6869L118.479 37.5011ZM119.863 36.6037L119.356 37.1099L120.163 39.1117C120.44 38.9506 120.694 38.7666 120.855 38.5595C120.878 38.6975 120.948 38.8356 121.017 38.9967C121.086 39.1577 121.155 39.2958 121.224 39.3878C121.132 39.3878 121.017 39.3878 120.948 39.3878C120.717 39.3878 120.532 39.4338 120.348 39.5259L121.224 41.7577L121.94 42.2639H119.54L120.186 41.7577L119.54 40.1471C119.425 40.2621 119.31 40.3542 119.217 40.4462C118.941 40.7223 118.733 40.9754 118.618 41.1825C118.226 40.5843 117.856 40.1241 117.533 39.848V39.94C117.326 40.4462 117.21 40.7683 117.164 40.9294C117.118 41.0905 117.095 41.2285 117.095 41.3436C117.095 41.5737 117.164 41.7807 117.326 41.9418C117.349 41.9648 117.464 42.0798 117.649 42.2639H115.273C115.573 42.1259 115.803 41.9648 115.988 41.8037C116.149 41.6427 116.334 41.4126 116.518 41.1135C116.657 40.8834 116.772 40.6763 116.841 40.4922C116.911 40.3082 117.026 40.009 117.164 39.6179C117.026 39.5259 116.934 39.4798 116.841 39.4568C116.749 39.4338 116.611 39.4108 116.449 39.3878C116.518 39.2728 116.611 39.1577 116.68 39.0197C116.749 38.8816 116.818 38.7666 116.841 38.6975C116.911 38.7896 117.026 38.8816 117.141 38.9967C117.257 39.0887 117.349 39.1577 117.372 39.1807L118.202 37.1329L117.695 36.6267H119.886L119.863 36.6037ZM112.989 36.6037H115.273L114.604 37.1099V41.7577L115.273 42.2639H112.989L113.658 41.7577V37.1099L112.989 36.6037ZM108.998 36.9949V41.8728C109.252 41.8728 109.46 41.8958 109.552 41.8958C110.175 41.8958 110.613 41.6887 110.913 41.2745C111.236 40.8144 111.397 40.1931 111.397 39.3648C111.397 38.5365 111.282 38.1453 111.028 37.7082C110.728 37.225 110.244 36.9719 109.575 36.9719C108.906 36.9719 109.275 36.9719 108.998 36.9949ZM107.383 36.6037H109.436C110.359 36.6037 111.028 36.7648 111.466 37.0869C112.112 37.5701 112.458 38.3294 112.458 39.3648C112.458 40.4002 112.112 41.3436 111.397 41.8037C111.143 41.9648 110.89 42.0798 110.59 42.1489C110.29 42.2179 109.921 42.2409 109.436 42.2409H107.383L108.052 41.7347V37.0869L107.383 36.5807V36.6037ZM105.861 41.1825V38.2374C105.861 37.7082 105.792 37.34 105.653 37.1099C105.515 36.8798 105.261 36.7188 104.892 36.6037H107.222C106.853 36.7188 106.599 36.8798 106.461 37.1099C106.322 37.34 106.253 37.7082 106.253 38.2374V42.2639H105.492L102.862 37.5241V40.6073C102.862 41.1365 102.931 41.5046 103.07 41.7347C103.208 41.9648 103.462 42.1259 103.831 42.2409H101.501C101.87 42.1259 102.124 41.9648 102.262 41.7347C102.401 41.5046 102.47 41.1365 102.47 40.6073V37.0869L101.801 36.5807H104.269L103.6 37.0869L105.861 41.1595V41.1825ZM99.0326 36.6037H101.316L100.647 37.1099V41.7577L101.316 42.2639H99.0326L99.7016 41.7577V37.1099L99.0326 36.6037ZM95.6415 36.6728V41.7577L96.3105 42.2639H94.0959L94.7649 41.7577V37.5011C94.6727 37.5701 94.5573 37.6161 94.3958 37.6621C94.2574 37.7082 94.119 37.7312 93.9806 37.7312C93.8422 37.7312 93.7038 37.6852 93.6115 37.6161C93.5192 37.5471 93.45 37.4551 93.45 37.363C93.45 37.271 93.4731 37.248 93.5192 37.202C93.5654 37.156 93.6115 37.1329 93.6807 37.1329C93.7499 37.1329 93.773 37.1329 93.8191 37.179C93.8653 37.202 93.8653 37.248 93.8653 37.294C93.8653 37.34 93.8653 37.34 93.8653 37.363C93.8653 37.363 93.8653 37.363 93.8653 37.386C93.8653 37.4321 93.9114 37.4551 93.9806 37.4551C94.1882 37.4551 94.3958 37.386 94.6035 37.225C94.8111 37.0869 94.9495 36.8798 95.0648 36.6498H95.6415V36.6728ZM92.758 41.1825C92.9195 41.1825 93.0579 41.2285 93.1963 41.3436C93.3116 41.4586 93.3808 41.5967 93.3808 41.7577C93.3808 41.9188 93.3116 42.0568 93.1963 42.1719C93.0809 42.2869 92.9425 42.3329 92.758 42.3329C92.5734 42.3329 92.435 42.2869 92.3197 42.1719C92.2043 42.0568 92.1351 41.9188 92.1351 41.7577C92.1351 41.5967 92.2043 41.4586 92.3197 41.3436C92.435 41.2285 92.5965 41.1825 92.758 41.1825ZM88.7672 36.8338C88.4442 36.8338 88.1443 36.9489 87.8906 37.1559C87.6829 37.34 87.5215 37.6161 87.4061 37.9843C87.3138 38.3524 87.2677 38.8356 87.2677 39.4338C87.2677 40.2852 87.383 40.9064 87.6137 41.3206C87.7291 41.5276 87.9136 41.7117 88.1443 41.8498C88.375 41.9878 88.6057 42.0568 88.8594 42.0568C89.1132 42.0568 89.4823 41.9418 89.736 41.7347C90.1513 41.3666 90.3589 40.6303 90.3589 39.5029C90.3589 38.3754 90.3358 38.6515 90.2666 38.3524C90.2205 38.0533 90.1282 37.8002 90.0129 37.5701C89.8975 37.363 89.713 37.179 89.4823 37.0409C89.2516 36.9029 89.0209 36.8338 88.7441 36.8338M88.8133 36.4657C89.5976 36.4657 90.2205 36.7188 90.6818 37.202C91.1663 37.7312 91.397 38.4905 91.397 39.4798C91.397 40.4692 91.1663 41.1365 90.6818 41.6657C90.2435 42.1489 89.6207 42.402 88.8133 42.402C88.0059 42.402 87.383 42.1489 86.9447 41.6657C86.4603 41.1365 86.2296 40.4002 86.2296 39.4338C86.2296 38.4675 86.4603 37.7312 86.9447 37.202C87.383 36.7188 88.0059 36.4887 88.8133 36.4657ZM84.661 41.1825V38.2374C84.661 37.7082 84.5918 37.34 84.4534 37.1099C84.3149 36.8798 84.0612 36.7188 83.6921 36.6037H86.022C85.6529 36.7188 85.3992 36.8798 85.2608 37.1099C85.1223 37.34 85.0531 37.7082 85.0531 38.2374V42.2639H84.2919L81.6621 37.5241V40.6073C81.6621 41.1365 81.7313 41.5046 81.8697 41.7347C82.0081 41.9648 82.2619 42.1259 82.631 42.2409H80.301C80.6701 42.1259 80.9239 41.9648 81.0623 41.7347C81.2007 41.5046 81.2699 41.1365 81.2699 40.6073V37.0869L80.6009 36.5807H83.0693L82.4003 37.0869L84.661 41.1595V41.1825ZM77.6943 36.6498C77.602 36.7878 77.4636 36.9949 77.3022 37.271C77.1407 37.5701 77.0023 37.8462 76.8869 38.1223C76.8177 37.8692 76.7485 37.6621 76.6793 37.5011C76.564 37.294 76.4025 37.1329 76.1718 36.9949C75.9411 36.8568 75.6874 36.7878 75.4105 36.7878C75.1337 36.7878 74.7877 36.8798 74.557 37.0869C74.3494 37.248 74.2571 37.4781 74.2571 37.7542C74.2571 38.0303 74.4647 38.3984 74.8569 38.5595C74.9953 38.6285 75.1337 38.6745 75.2491 38.6975C75.3644 38.7206 75.7104 38.8126 76.2641 38.9276C76.8408 39.0657 77.256 39.2498 77.5328 39.5259C77.8327 39.825 77.9942 40.1931 77.9942 40.6073C77.9942 41.0214 77.8097 41.4586 77.4636 41.8037C77.0484 42.1949 76.5178 42.379 75.8488 42.379C75.1799 42.379 75.4106 42.379 75.2029 42.3099C74.9953 42.2639 74.6493 42.1719 74.1879 42.0568C73.9803 41.9878 73.8188 41.9648 73.6804 41.9648C73.542 41.9648 73.2652 42.0568 72.9653 42.2409C73.1268 42.0108 73.3113 41.7117 73.4959 41.3666C73.6804 41.0214 73.7958 40.7223 73.865 40.5152C73.9572 40.8604 74.0495 41.0905 74.1187 41.2285C74.2571 41.4586 74.4878 41.6427 74.7646 41.7807C75.0876 41.9418 75.4567 42.0108 75.8488 42.0108C76.241 42.0108 76.587 41.9188 76.8177 41.7577C77.0715 41.5506 77.2099 41.2975 77.2099 40.9984C77.2099 40.6993 77.1637 40.6303 77.0484 40.4692C76.9331 40.3082 76.7716 40.1701 76.587 40.0551C76.4256 39.986 76.2641 39.917 76.0795 39.848C75.895 39.802 75.5951 39.7329 75.1568 39.6639C74.557 39.5489 74.1418 39.3878 73.888 39.1577C73.5881 38.8816 73.4497 38.5135 73.4497 38.0993C73.4497 37.6852 73.6574 37.156 74.0495 36.8568C74.3955 36.6037 74.8338 36.4657 75.3644 36.4657C75.895 36.4657 76.1718 36.5347 76.6793 36.6958C76.91 36.7648 77.0715 36.7878 77.1868 36.7878C77.3022 36.7878 77.5098 36.7418 77.7635 36.6498M72.3424 36.4657C72.4347 36.6728 72.4809 36.8798 72.4809 37.0639C72.4809 37.4321 72.3655 37.7312 72.1118 37.9843C71.8811 38.2374 71.5351 38.4444 71.0737 38.5825L71.0275 38.5135C71.189 38.3984 71.2813 38.3064 71.3274 38.2604C71.3967 38.1913 71.4428 38.0763 71.4889 37.9382C71.5351 37.8002 71.5581 37.6851 71.5581 37.5701C71.5581 37.317 71.4658 37.1099 71.3044 36.9259H71.3967C71.7196 36.7878 72.0195 36.6498 72.3194 36.4657M67.129 36.9949V41.8728C67.3827 41.8728 67.5904 41.8958 67.6826 41.8958C68.3055 41.8958 68.7438 41.6887 69.0437 41.2745C69.3666 40.8144 69.5281 40.1931 69.5281 39.3648C69.5281 38.5365 69.4128 38.1453 69.159 37.7082C68.8591 37.225 68.3747 36.9719 67.7057 36.9719C67.0367 36.9719 67.4058 36.9719 67.129 36.9949ZM65.5142 36.6037H67.5673C68.49 36.6037 69.159 36.7648 69.5973 37.0869C70.2432 37.5701 70.5893 38.3294 70.5893 39.3648C70.5893 40.4002 70.2432 41.3436 69.5512 41.8037C69.2974 41.9648 69.0206 42.0798 68.7438 42.1489C68.4439 42.2179 68.0748 42.2409 67.5904 42.2409H65.5373L66.2063 41.7347V37.0869L65.5373 36.5807L65.5142 36.6037ZM60.4161 36.6037H62.6999L62.0309 37.1099V41.8728C62.3538 41.8728 62.6076 41.8958 62.8152 41.8958C63.3227 41.8958 63.6918 41.8037 63.9456 41.5967C64.1993 41.3896 64.3838 41.0675 64.4531 40.6073C64.5915 40.9754 64.7299 41.2975 64.9144 41.5967C65.0759 41.8958 65.2374 42.1259 65.3758 42.2409H60.393L61.062 41.7347V37.0869L60.393 36.5807L60.4161 36.6037ZM56.5867 37.1329V39.4568C57.1634 39.3878 57.6479 39.2728 58.04 39.0887C58.3399 38.9506 58.5475 38.7666 58.686 38.5365C58.8013 38.3524 58.8474 38.1683 58.8474 37.9613C58.8474 37.5931 58.686 37.317 58.3861 37.0869C58.1323 36.9029 57.8324 36.8108 57.4864 36.8108C57.1404 36.8108 56.8405 36.9028 56.5867 37.1099M54.9719 37.1559C55.2026 37.0179 55.4564 36.9028 55.7101 36.7878C56.333 36.5577 56.9789 36.4427 57.6017 36.4427C58.2246 36.4427 58.2477 36.4887 58.5475 36.5807C58.8474 36.6728 59.1012 36.7878 59.3088 36.9489C59.6779 37.225 59.8624 37.5471 59.8624 37.9613C59.8624 38.3754 59.724 38.6055 59.4472 38.8816C59.1704 39.1577 58.7782 39.3418 58.2707 39.4568C58.4783 39.986 58.7782 40.5382 59.1704 41.0675C59.5626 41.6197 59.9316 42.0108 60.3007 42.2639C59.724 42.425 59.2165 42.6781 58.7782 43.0002C58.6629 42.3329 58.5476 41.7807 58.4091 41.3206C58.2707 40.8604 58.04 40.2852 57.7632 39.5949C57.6248 39.6409 57.4172 39.6639 57.1865 39.7099C56.9328 39.7559 56.7482 39.779 56.6098 39.779V41.7577L57.2788 42.2639H54.995L55.664 41.7577V39.917C55.341 39.94 55.0642 39.986 54.8797 40.0551C54.9719 39.894 55.0412 39.7099 55.0873 39.5259C55.1796 39.5259 55.2718 39.5259 55.318 39.5259C55.4102 39.5259 55.5256 39.5259 55.664 39.5259V37.5241L54.995 37.179L54.9719 37.1559ZM51.7885 36.8338C51.4656 36.8338 51.1657 36.9489 50.9119 37.1559C50.7043 37.34 50.5428 37.6161 50.4275 37.9843C50.3352 38.3524 50.2891 38.8356 50.2891 39.4338C50.2891 40.2852 50.4044 40.9064 50.6351 41.3206C50.7504 41.5276 50.935 41.7117 51.1657 41.8498C51.3963 41.9878 51.627 42.0568 51.8808 42.0568C52.1345 42.0568 52.5036 41.9418 52.7574 41.7347C53.1726 41.3666 53.3802 40.6303 53.3802 39.5029C53.3802 38.3754 53.3572 38.6515 53.288 38.3524C53.2418 38.0533 53.1495 37.8002 53.0342 37.5701C52.9189 37.363 52.7343 37.179 52.5036 37.0409C52.2729 36.9029 52.0423 36.8338 51.7654 36.8338M51.8346 36.4657C52.619 36.4657 53.2418 36.7188 53.7032 37.202C54.1876 37.7312 54.4183 38.4905 54.4183 39.4798C54.4183 40.4692 54.1876 41.1365 53.7032 41.6657C53.2649 42.1489 52.642 42.402 51.8346 42.402C51.0273 42.402 50.4044 42.1489 49.9661 41.6657C49.4817 41.1365 49.251 40.4002 49.251 39.4338C49.251 38.4675 49.4817 37.7312 49.9661 37.202C50.4044 36.7188 51.0273 36.4887 51.8346 36.4657ZM49.9892 35.2002C49.5509 35.6374 49.2048 36.0745 48.9742 36.5347C48.7435 36.9949 48.4897 37.6852 48.1898 38.6515L47.3594 41.4356L47.4516 41.7577L48.1206 42.2639H45.8138L46.4828 41.7577L45.4216 38.1913L44.4297 41.5046L44.522 41.7577L45.1909 42.2639H42.9072L43.5762 41.7577L42.169 37.1099L41.5 36.6037H43.8068L43.1379 37.1099L44.2451 40.7913L45.4908 36.6037H45.9291L47.1518 40.7683L47.8207 38.5595C48.0976 37.6161 48.236 36.9949 48.236 36.7418C48.236 36.4887 48.1898 36.4197 48.1206 36.3046C48.0514 36.1896 47.9361 36.0745 47.7515 35.9825C48.1437 35.8905 48.5589 35.7754 48.9972 35.6144C49.4355 35.4533 49.7585 35.3382 49.9892 35.2002Z" fill="#2E3388"/>
<path d="M269.024 41.1815V38.2364C269.024 37.7072 268.955 37.339 268.816 37.109C268.678 36.8789 268.424 36.7178 268.055 36.6028H270.385C270.016 36.7178 269.762 36.8789 269.624 37.109C269.485 37.339 269.416 37.7072 269.416 38.2364V42.2629H268.655L266.025 37.5231V40.6063C266.025 41.1355 266.094 41.5036 266.233 41.7337C266.371 41.9638 266.625 42.1249 266.994 42.2399H264.664C265.033 42.1249 265.287 41.9638 265.425 41.7337C265.564 41.5036 265.633 41.1355 265.633 40.6063V37.086L264.964 36.5798H267.432L266.763 37.086L269.024 41.1585V41.1815ZM262.196 36.6028H264.479L263.81 37.109V41.7567L264.479 42.2629H262.196L262.865 41.7567V37.109L262.196 36.6028ZM258.62 37.5001L257.836 39.4098C258.113 39.6859 258.412 40.0541 258.758 40.4913C258.782 40.4683 258.897 40.3302 259.105 40.1001C259.22 39.9851 259.358 39.847 259.52 39.6859L258.62 37.5001ZM260.004 36.6028L259.497 37.109L260.304 39.1107C260.581 38.9497 260.835 38.7656 260.996 38.5585C261.042 38.6966 261.088 38.8346 261.158 38.9957C261.227 39.1567 261.296 39.2948 261.365 39.3868C261.273 39.3868 261.158 39.3868 261.088 39.3868C260.858 39.3868 260.673 39.4328 260.489 39.5249L261.365 41.7567L262.08 42.2629H259.681L260.327 41.7567L259.681 40.1461C259.566 40.2612 259.451 40.3532 259.358 40.4452C259.081 40.7213 258.874 40.9744 258.758 41.1815C258.366 40.5833 257.997 40.1231 257.674 39.847V39.939C257.467 40.4452 257.351 40.7674 257.305 40.9284C257.259 41.0895 257.236 41.2275 257.236 41.3426C257.236 41.5727 257.305 41.7798 257.467 41.9408C257.49 41.9638 257.605 42.0789 257.79 42.2629H255.414C255.713 42.1249 255.944 41.9638 256.129 41.8028C256.29 41.6417 256.475 41.4116 256.659 41.1125C256.798 40.8824 256.913 40.6753 256.982 40.4913C257.051 40.3072 257.167 40.0081 257.305 39.6169C257.167 39.5249 257.074 39.4789 256.982 39.4559C256.89 39.4329 256.752 39.4098 256.59 39.3868C256.659 39.2718 256.752 39.1567 256.821 39.0187C256.913 38.8806 256.959 38.7656 256.982 38.6966C257.051 38.7886 257.167 38.8806 257.282 38.9957C257.397 39.0877 257.49 39.1567 257.513 39.1798L258.343 37.132L257.836 36.6258H260.027L260.004 36.6028ZM250.085 36.6028H252.369L251.7 37.109V39.1107C252.046 39.2028 252.484 39.2488 252.991 39.2488C253.499 39.2488 253.545 39.2488 253.799 39.2028V37.109L253.13 36.6028H255.414L254.745 37.109V41.7567L255.414 42.2629H253.13L253.799 41.7567V39.5939C253.499 39.6399 253.199 39.6629 252.899 39.6629C252.415 39.6629 252.023 39.6169 251.723 39.5479V41.7567L252.392 42.2629H250.108L250.777 41.7567V39.5479C250.592 39.5479 250.431 39.5709 250.269 39.6399C250.108 39.709 249.992 39.801 249.9 39.916C250.062 39.4789 250.339 39.2028 250.777 39.1337V37.109L250.108 36.6028H250.085ZM249.646 36.6028C249.254 37.247 248.931 37.8452 248.678 38.3975C248.608 38.0063 248.493 37.6612 248.332 37.4081C248.216 37.224 248.055 37.086 247.847 36.9709C247.64 36.8559 247.409 36.8098 247.201 36.8098C246.994 36.8098 246.624 36.9019 246.371 37.109C245.886 37.4771 245.633 38.2134 245.633 39.3178C245.633 40.4222 245.771 40.7444 246.025 41.2275C246.163 41.4576 246.348 41.6647 246.578 41.8028C246.832 41.9638 247.132 42.0329 247.432 42.0329C247.732 42.0329 248.216 41.8948 248.493 41.6187C248.747 41.3426 248.908 40.9514 248.954 40.4452C248.954 40.3302 249.024 40.2612 249.116 40.2612C249.208 40.2612 249.3 40.3532 249.3 40.5373C249.3 40.7214 249.254 41.0205 249.139 41.3196C249.001 41.6647 248.77 41.9408 248.447 42.1249C248.124 42.309 247.732 42.401 247.27 42.401C246.809 42.401 246.302 42.2859 245.886 42.0559C245.425 41.8028 245.079 41.3886 244.848 40.8364C244.687 40.4222 244.594 39.9621 244.594 39.4559C244.594 38.9497 244.756 38.1904 245.079 37.6842C245.586 36.8559 246.325 36.4417 247.27 36.4417C248.216 36.4417 247.663 36.4417 247.801 36.4877C247.939 36.5107 248.17 36.5798 248.447 36.6718C248.678 36.7638 248.885 36.8098 249.024 36.8098C249.162 36.8098 249.231 36.8098 249.3 36.7638C249.37 36.7408 249.485 36.6718 249.623 36.5798M242.149 36.6028C241.826 37.086 241.596 37.5461 241.457 37.9603C241.365 37.7072 241.273 37.5231 241.203 37.4081C241.019 37.109 240.696 36.9709 240.258 36.9709C239.819 36.9709 239.981 36.9709 239.75 36.9939V41.7567L240.419 42.2629H238.135L238.804 41.7567V36.9939C238.551 36.9939 238.389 36.9709 238.297 36.9709C237.835 36.9709 237.536 37.109 237.351 37.4081C237.282 37.5231 237.19 37.7072 237.097 37.9603C236.959 37.5461 236.728 37.086 236.405 36.6028H242.172H242.149ZM235.206 41.1815V38.2364C235.206 37.7072 235.136 37.339 234.998 37.109C234.86 36.8789 234.606 36.7178 234.237 36.6028H236.567C236.198 36.7178 235.944 36.8789 235.805 37.109C235.667 37.339 235.598 37.7072 235.598 38.2364V42.2629H234.837L232.207 37.5231V40.6063C232.207 41.1355 232.276 41.5036 232.414 41.7337C232.553 41.9638 232.807 42.1249 233.176 42.2399H230.846C231.215 42.1249 231.469 41.9638 231.607 41.7337C231.745 41.5036 231.815 41.1355 231.815 40.6063V37.086L231.146 36.5798H233.614L232.945 37.086L235.206 41.1585V41.1815ZM227.57 37.5001L226.786 39.4098C227.063 39.6859 227.362 40.0541 227.708 40.4913C227.731 40.4683 227.847 40.3302 228.054 40.1001C228.17 39.9851 228.308 39.847 228.47 39.6859L227.57 37.5001ZM228.954 36.6028L228.447 37.109L229.254 39.1107C229.531 38.9497 229.762 38.7656 229.946 38.5585C229.992 38.6966 230.038 38.8346 230.108 38.9957C230.177 39.1567 230.246 39.2948 230.315 39.3868C230.223 39.3868 230.131 39.3868 230.038 39.3868C229.808 39.3868 229.623 39.4328 229.439 39.5249L230.315 41.7567L231.03 42.2629H228.631L229.277 41.7567L228.631 40.1461C228.516 40.2612 228.424 40.3532 228.308 40.4452C228.031 40.7213 227.824 40.9744 227.708 41.1815C227.293 40.5833 226.947 40.1231 226.624 39.847V39.939C226.417 40.4452 226.301 40.7674 226.255 40.9284C226.209 41.0895 226.186 41.2275 226.186 41.3426C226.186 41.5727 226.255 41.7798 226.417 41.9408C226.44 41.9638 226.555 42.0789 226.74 42.2629H224.364C224.663 42.1249 224.894 41.9638 225.079 41.8028C225.24 41.6417 225.425 41.4116 225.609 41.1125C225.748 40.8824 225.863 40.6753 225.932 40.4913C226.001 40.3072 226.117 40.0081 226.255 39.6169C226.117 39.5249 226.024 39.4789 225.932 39.4559C225.84 39.4329 225.701 39.4098 225.54 39.3868C225.609 39.2718 225.701 39.1567 225.771 39.0187C225.84 38.8806 225.909 38.7656 225.932 38.6966C226.001 38.7886 226.117 38.8806 226.232 38.9957C226.347 39.0877 226.44 39.1567 226.463 39.1798L227.293 37.132L226.786 36.6258H228.977L228.954 36.6028ZM221.019 37.132V39.4559C221.595 39.3868 222.08 39.2718 222.472 39.0877C222.772 38.9497 222.979 38.7656 223.118 38.5355C223.233 38.3514 223.279 38.1674 223.279 37.9603C223.279 37.5921 223.118 37.316 222.818 37.086C222.564 36.9019 222.264 36.8098 221.918 36.8098C221.572 36.8098 221.272 36.9019 221.019 37.109M219.404 37.155C219.634 37.0169 219.888 36.9019 220.142 36.7868C220.765 36.5567 221.411 36.4417 222.034 36.4417C222.656 36.4417 222.68 36.4877 222.979 36.5798C223.279 36.6718 223.533 36.7868 223.741 36.9479C224.11 37.224 224.294 37.5461 224.294 37.9603C224.294 38.3744 224.156 38.6045 223.879 38.8806C223.602 39.1567 223.21 39.3408 222.703 39.4559C222.91 39.9851 223.21 40.5373 223.602 41.0665C223.994 41.6187 224.364 42.0098 224.733 42.2629C224.156 42.424 223.648 42.6771 223.21 42.9992C223.095 42.332 222.979 41.7798 222.841 41.3196C222.703 40.8594 222.472 40.2842 222.195 39.5939C222.057 39.6399 221.849 39.6629 221.618 39.709C221.365 39.755 221.18 39.778 221.042 39.778V41.7567L221.711 42.2629H219.427L220.096 41.7567V39.916C219.773 39.939 219.496 39.9851 219.312 40.0541C219.404 39.893 219.473 39.709 219.519 39.5249C219.611 39.5249 219.704 39.5249 219.75 39.5249C219.842 39.5249 219.957 39.5249 220.096 39.5249V37.5231L219.427 37.178L219.404 37.155Z" fill="#2E3388"/>
</svg>
